C:\Users\mayra\OneDrive - Universitat Pompeu Fabra\PhD_Mayra\OpenSim\aurel\ID_04_Walking_14.mot
version=1
nRows=19
nColumns=19
inDegrees=yes

BTS OpenSim export

endheader
time	r.gr_force_vx	r.gr_force_vy	r.gr_force_vz	r.gr_force_px	r.gr_force_py	r.gr_force_pz	l.gr_force_vx	l.gr_force_vy	l.gr_force_vz	l.gr_force_px	l.gr_force_py	l.gr_force_pz	r.gr_torque_x	r.gr_torque_y	r.gr_torque_z	l.gr_torque_x	l.gr_torque_y	l.gr_torque_z
4.452000	0.00000000	0.00000000	0.00000000	0.00000000	0.00000000	0.00000000	-0.29757845	-0.70395482	0.04241104	1.05031276	0.00286899	0.25029388	0.00000000	0.00000000	0.00000000	-0.00016454	0.02988386	0.00001150
4.456000	0.00000000	0.00000000	0.00000000	0.00000000	0.00000000	0.00000000	-0.29757845	-0.70395482	0.04241104	1.05031276	0.00286899	0.25029388	0.00000000	0.00000000	0.00000000	-0.00016454	0.02988386	0.00001150
4.460000	0.00000000	0.00000000	0.00000000	0.00000000	0.00000000	0.00000000	-0.29614693	-0.96395308	0.04231098	0.93762565	0.00223592	0.28308064	0.00000000	0.00000000	0.00000000	-0.00019248	0.03495764	0.00001345
4.464000	0.00000000	0.00000000	0.00000000	0.00000000	0.00000000	0.00000000	-0.29902095	-0.44197011	0.04251186	0.98430908	0.00253353	0.17766307	0.00000000	0.00000000	0.00000000	-0.00002848	0.00517253	0.00000199
4.468000	0.00000000	0.00000000	0.00000000	0.00000000	0.00000000	0.00000000	-0.29757705	-0.70421159	0.04241094	1.05166066	0.00287680	0.24929297	0.00000000	0.00000000	0.00000000	-0.00016320	0.02963967	0.00001141
4.472000	0.00000000	0.00000000	0.00000000	0.00000000	0.00000000	0.00000000	-0.29903194	-0.43997565	0.04251263	0.67030054	0.00080510	0.17635161	0.00000000	0.00000000	0.00000000	0.00004749	-0.00862510	-0.00000332
4.476000	0.00000000	0.00000000	0.00000000	0.00000000	0.00000000	0.00000000	-0.83412057	-1.22908080	1.11740601	0.88254809	0.00195997	0.21211497	0.00000000	0.00000000	0.00000000	0.00050011	-0.09082956	-0.00003495
4.480000	0.00000000	0.00000000	0.00000000	0.00000000	0.00000000	0.00000000	-0.29469478	-1.22769141	0.04220948	0.87319803	0.00192798	0.16148433	0.00000000	0.00000000	0.00000000	0.00002448	-0.00444684	-0.00000171
4.484000	0.00000000	0.00000000	0.00000000	0.00000000	0.00000000	0.00000000	-0.29613730	-0.96569872	0.04231031	0.93719530	0.00226776	0.19418506	0.00000000	0.00000000	0.00000000	-0.00004483	0.00814213	0.00000313
4.488000	0.00000000	0.00000000	0.00000000	0.00000000	0.00000000	0.00000000	-0.29325229	-1.48967612	0.04210866	0.92391199	0.00219292	0.19861180	0.00000000	0.00000000	0.00000000	-0.00004906	0.00890959	0.00000343
4.492000	0.00000000	0.00000000	0.00000000	0.00000000	0.00000000	0.00000000	-0.29830959	-0.70392507	0.58037448	0.85361052	0.00183977	0.11045376	0.00000000	0.00000000	0.00000000	-0.00053788	0.09769079	0.00003760
4.496000	0.00000000	0.00000000	0.00000000	0.00000000	0.00000000	0.00000000	-0.29687190	-0.69952208	-0.49555066	0.65498519	0.00068573	0.26740935	0.00000000	0.00000000	0.00000000	-0.00003608	0.00655219	0.00000252
4.500000	0.00000000	0.00000000	0.00000000	0.00000000	0.00000000	0.00000000	0.24266978	-0.96252531	-0.49492198	0.92461985	0.00219369	0.20672372	0.00000000	0.00000000	0.00000000	0.00128169	-0.23278062	-0.00008958
4.504000	0.00000000	0.00000000	0.00000000	0.00000000	0.00000000	0.00000000	0.24049748	-0.70075166	0.04314218	0.83634228	0.00173806	0.12767155	0.00000000	0.00000000	0.00000000	0.00033740	-0.06127944	-0.00002358
4.508000	0.00000000	0.00000000	0.00000000	0.00000000	0.00000000	0.00000000	-0.29613730	-0.96569872	0.04231031	0.93719530	0.00226776	0.19418506	0.00000000	0.00000000	0.00000000	-0.00004483	0.00814213	0.00000313
4.512000	0.00000000	0.00000000	0.00000000	0.00000000	0.00000000	0.00000000	-0.29470575	-1.22569704	0.04221025	0.87263274	0.00189777	0.23187897	0.00000000	0.00000000	0.00000000	-0.00009222	0.01674916	0.00000645
4.516000	0.00000000	0.00000000	0.00000000	0.00000000	0.00000000	0.00000000	-0.29469618	-1.22743464	0.04220958	0.87238836	0.00192330	0.16203940	0.00000000	0.00000000	0.00000000	0.00002375	-0.00431407	-0.00000166
4.520000	0.00000000	0.00000000	0.00000000	0.00000000	0.00000000	0.00000000	-0.29470575	-1.22569704	0.04221025	0.87263274	0.00189777	0.23187897	0.00000000	0.00000000	0.00000000	-0.00009222	0.01674916	0.00000645
4.524000	0.00000000	0.00000000	0.00000000	0.00000000	0.00000000	0.00000000	-0.29757845	-0.70395482	0.04241104	1.05031276	0.00286899	0.25029388	0.00000000	0.00000000	0.00000000	-0.00016454	0.02988386	0.00001150
